PathFileType	4	(X/Y/Z)	D:\TRACE\spotREDO_2-26-24\spot_justArm_Motion_3_1-v60.trc
DataRate	CameraRate	NumFrames	NumMarkers	Units	OrigDataRate	OrigDataStartFrame	OrigNumFrames
100.00	100.00	      38	9	mm	100.00	1751	      7000
Frame#	Time	front left toe			Front right toe			aft left toe			aft right toe			Arm			FL body			FR body			AL Body			AR Body			
		X1	Y1	Z1	X2	Y2	Z2	X3	Y3	Z3	X4	Y4	Z4	X5	Y5	Z5	X6	Y6	Z6	X7	Y7	Z7	X8	Y8	Z8	X9	Y9	Z9	

1751	17.500	-244.58591	18.55198	-170.21733	178.36620	18.80108	-169.91840	-223.58081	24.33454	459.77020	190.82011	26.98281	421.94885	-72.73911	700.55475	-780.86444	-105.65395	546.72162	-227.86185	50.67784	550.71906	-235.32762	-74.05797	565.40521	654.78766	73.61223	565.70721	650.34094	
1752	17.510	-244.63199	18.56313	-170.20648	178.32468	18.69678	-169.90964	-223.68929	24.28159	459.81036	190.66658	26.85460	421.93192	-72.40866	700.68213	-780.84601	-105.82192	546.75073	-227.88945	50.63174	550.71454	-235.32826	-74.15747	565.36700	654.81921	73.46595	565.62830	650.43481	
1753	17.520	-244.71664	18.58361	-170.50827	178.14171	18.80195	-169.77617	-223.64104	24.13119	459.83096	190.59685	26.75474	422.00089	-72.15714	700.75189	-780.81494	-105.81588	546.69617	-227.83842	50.56090	550.77710	-235.31097	-74.32109	565.29565	654.82977	73.35769	565.55725	650.62213	
1754	17.530	-244.68085	18.61142	-170.14400	178.21004	18.78622	-169.78241	-223.68237	24.02700	459.83539	190.60938	26.64083	421.97693	-71.87897	700.84204	-780.75745	-105.91550	546.80127	-227.84241	50.53160	550.81390	-235.26181	-74.81274	565.39697	654.92999	73.24179	565.52960	650.67084	
1755	17.540	-244.72740	18.66041	-170.14270	178.10341	18.92457	-169.66800	-223.73842	23.94963	459.89960	190.28879	26.55203	422.02673	-70.90193	700.87134	-779.90472	-105.85847	546.74799	-227.84120	50.48686	550.83331	-235.19218	-75.31221	565.40576	654.91107	72.87521	565.62579	650.78033	
1756	17.550	-244.78580	18.67323	-170.43085	178.14377	18.99370	-169.61929	-223.75490	23.87777	459.90292	190.31384	26.50946	422.09058	-71.38757	700.93658	-780.64539	-105.92376	546.79602	-227.83295	50.47192	550.86914	-235.10861	-75.58685	565.32568	654.90857	72.67259	565.55334	650.85052	
1757	17.560	-244.86951	18.73807	-170.41284	178.09180	19.02435	-169.58206	-223.76511	23.82702	459.84637	190.04108	26.29147	422.04868	-71.24371	700.98566	-780.64874	-105.86438	546.82788	-227.80771	50.42598	550.90863	-235.05043	-75.85510	565.28448	654.93079	72.39985	565.42584	650.86877	
1758	17.570	-244.87953	18.77227	-170.37419	178.02039	19.02776	-169.63643	-223.80165	23.79234	459.85049	189.92090	26.14279	422.07736	-71.14754	701.05585	-780.65118	-105.85844	546.89136	-227.82619	50.45831	550.97125	-235.00447	-76.09176	565.24689	654.90247	72.22693	565.33228	650.87561	
1759	17.580	-244.79512	18.81814	-170.31885	177.99754	19.43524	-169.36131	-223.87503	23.69896	459.86938	189.91518	26.14302	422.21964	-71.02703	701.11914	-780.62146	-105.83781	546.94891	-227.79735	50.44016	551.05389	-234.94800	-76.22550	565.24188	654.90942	72.14242	565.31360	650.89624	
1760	17.590	-244.83652	18.88916	-170.25763	178.05542	19.16881	-169.53780	-223.88492	23.64284	459.89624	190.01224	25.96727	422.14041	-71.04621	701.17358	-780.55603	-105.81313	546.96484	-227.81090	50.46221	551.17310	-234.91223	-76.30968	565.19275	654.93060	71.99666	565.28064	650.88306	
1761	17.600	-244.78694	18.93722	-170.19753	177.71378	19.30412	-169.54651	-223.89191	23.57742	459.87750	189.76120	25.89522	422.26184	-71.11113	701.18842	-780.53076	-105.81383	546.98242	-227.80492	50.38143	551.25140	-234.90150	-76.38723	565.15131	654.93768	71.82243	565.30280	650.87585	
1762	17.610	-244.77930	18.97828	-170.19577	177.91484	19.07542	-169.51360	-223.94937	23.52442	459.87381	190.07335	25.81748	422.24719	-71.13174	701.20862	-780.51398	-105.79584	546.94916	-227.79576	50.43995	551.21448	-234.88443	-76.44036	565.12445	654.92950	71.80746	565.28192	650.88538	
1763	17.620	-244.84917	19.01824	-170.14107	177.70438	19.34551	-169.47368	-223.94859	23.42054	459.87244	189.78963	25.59524	422.22375	-71.30290	701.26465	-780.49762	-105.82248	546.93475	-227.75597	50.37298	551.19562	-234.83867	-76.47033	565.07410	654.91669	71.76114	565.26996	650.88574	
1764	17.630	-244.82503	18.99992	-169.86642	177.87343	19.16773	-169.41772	-224.03728	23.34463	459.92557	189.82042	25.50629	422.24435	-71.46846	701.19617	-780.51746	-105.95358	546.97583	-227.82742	50.33715	551.17889	-234.85089	-76.57426	564.97992	654.89154	71.78336	565.23816	650.92456	
1765	17.640	-244.85623	19.04666	-169.85265	177.85574	19.29865	-169.40527	-224.06567	23.24249	459.91364	189.79053	25.47403	422.28766	-71.69541	701.21741	-780.52820	-105.90295	546.85455	-227.73091	50.30236	551.10608	-234.81912	-76.51346	564.98328	654.92841	71.82132	565.20886	650.92401	
1766	17.650	-244.88130	19.12252	-169.77191	177.72354	19.29132	-169.45711	-224.10260	23.18359	459.97009	189.67856	25.36465	422.23752	-71.84643	701.19971	-780.48016	-106.07481	546.86499	-227.81302	50.19730	551.07263	-234.81242	-76.53760	564.92871	654.91980	71.76480	565.18073	650.90753	
1767	17.660	-244.91335	19.11382	-169.74910	177.57835	19.46904	-169.43608	-224.13704	23.10217	460.00027	189.68391	25.29006	422.25711	-71.97414	701.13263	-780.53302	-106.18011	546.79034	-227.77895	50.10749	551.02277	-234.81119	-76.47994	564.87714	654.95892	71.84850	565.14990	650.92212	
1768	17.670	-244.90344	19.14281	-169.75243	177.57193	19.45903	-169.44167	-224.09543	23.07644	460.02301	189.72086	25.19067	422.19424	-72.20550	701.11542	-780.58130	-106.20650	546.76349	-227.69917	50.01761	551.02618	-234.81256	-76.50558	564.82666	654.94934	71.86553	565.08923	650.94440	
1769	17.680	-244.95457	19.19583	-169.66885	177.76828	19.31808	-169.36128	-224.09308	22.93611	460.08057	189.60605	25.09895	422.17166	-71.84348	701.05817	-780.15649	-106.26761	546.75983	-227.70435	49.87174	551.08453	-234.80367	-76.46420	564.75781	654.96600	71.87302	565.05640	650.95593	
1770	17.690	-244.95667	19.20220	-169.62131	177.73485	19.31276	-169.39389	-224.08075	22.90757	460.09015	189.54665	25.03797	422.15747	-72.52234	701.06104	-780.56433	-106.41580	546.78931	-227.75375	49.78564	551.07037	-234.82751	-76.42867	564.73047	654.96716	71.87500	565.00085	650.95331	
1771	17.700	-245.01999	19.27388	-169.56984	177.62874	19.45168	-169.38025	-224.14270	22.83526	460.09470	189.62425	25.03739	422.22949	-72.62228	700.97693	-780.49506	-106.50710	546.80878	-227.73889	49.68921	551.10529	-234.77802	-76.42725	564.69891	654.99109	71.86382	564.97345	650.94604	
1772	17.710	-245.10478	19.34012	-169.50049	177.61386	19.53621	-169.32310	-224.15103	22.78599	460.12744	189.54623	24.95590	422.20425	-72.82299	701.02820	-780.51587	-106.55730	546.79456	-227.73175	49.60701	551.08545	-234.74583	-76.38205	564.66895	655.01044	71.93160	564.83124	651.00421	
1773	17.720	-245.11629	19.34357	-169.48079	177.56610	19.56923	-169.33191	-224.18382	22.64582	460.21808	189.54179	24.90777	422.25980	-72.94165	701.03247	-780.50696	-106.60320	546.78351	-227.74751	49.53796	551.05762	-234.73160	-76.42726	564.63452	655.03345	71.87417	564.74628	650.99860	
1774	17.730	-245.19608	19.40911	-169.43988	177.55469	19.56682	-169.30949	-224.22699	22.55563	460.23804	189.56998	24.90874	422.33603	-73.15294	701.07996	-780.56500	-106.64573	546.74854	-227.74835	49.52297	551.02289	-234.71927	-76.47697	564.61029	655.05029	71.83459	564.60272	651.04230	
1775	17.740	-245.20775	19.40262	-169.45834	177.54576	19.65895	-169.26285	-224.29150	22.48150	460.23901	189.56403	24.82930	422.36197	-73.05398	701.07623	-780.49866	-106.65623	546.71283	-227.73604	49.46228	551.00677	-234.65363	-76.53639	564.54547	655.08008	71.77342	564.50452	651.07654	
1776	17.750	-245.22394	19.49806	-169.43851	177.52434	19.67218	-169.28906	-224.34259	22.36459	460.26501	189.63875	24.81878	422.35904	-73.18819	701.12469	-780.58105	-106.67721	546.71307	-227.68695	49.46103	551.04559	-234.67436	-76.53769	564.45386	655.13965	71.80116	564.38782	651.09528	
1777	17.760	-245.31479	19.57447	-169.43739	177.45308	19.72238	-169.31364	-224.36649	22.30857	460.25717	189.58327	24.78849	422.39755	-73.17340	701.30029	-780.71478	-106.77863	546.67535	-227.69366	49.37374	551.00140	-234.64886	-76.62022	564.41437	655.17072	72.20718	564.42047	651.69989	
1778	17.770	-245.34415	19.60627	-169.41264	177.45010	19.71926	-169.25960	-224.43973	22.19857	460.26779	189.60033	24.75153	422.41983	-73.10007	701.29028	-780.71283	-106.77686	546.60571	-227.64824	49.35867	550.91150	-234.59077	-76.69254	564.36993	655.22504	71.66792	564.32690	651.14429	
1779	17.780	-245.38789	19.65638	-169.37268	177.44966	19.70939	-169.24098	-224.42935	22.09166	460.29959	189.55566	24.73670	422.43503	-73.11320	701.21472	-780.53204	-106.76125	546.56799	-227.69321	49.32178	550.89948	-234.57124	-76.79399	564.31036	655.26074	71.67585	564.23999	651.18665	
1780	17.790	-245.41438	19.67513	-169.40294	177.39352	19.66230	-169.27841	-224.53281	22.01820	460.29263	189.50507	24.63510	422.42252	-73.06066	701.13861	-780.47766	-106.77076	546.59027	-227.65233	49.31450	550.90918	-234.57248	-76.89091	564.20313	655.26001	71.59613	564.20795	651.18591	
1781	17.800	-245.44530	19.72786	-169.38274	177.36859	19.78124	-169.26187	-224.54433	21.96888	460.27997	189.57339	24.63259	422.45425	-72.95511	701.09436	-780.43372	-106.75666	546.56525	-227.61469	49.33686	550.92426	-234.54231	-76.94697	564.16895	655.25421	71.53901	564.18176	651.18292	
1782	17.810	-245.41481	19.70786	-169.37115	177.37076	19.67605	-169.21848	-224.54440	21.88192	460.31296	189.52745	24.60529	422.47049	-72.18237	701.08618	-779.82355	-106.84644	546.61005	-227.66699	49.33259	550.94684	-234.50726	-77.03608	564.12567	655.26367	71.47221	564.20996	651.19855	
1783	17.820	-245.42352	19.73476	-169.33719	177.30144	19.71768	-169.25789	-224.59369	21.83874	460.30334	189.48335	24.56509	422.49225	-72.88347	701.09082	-780.38855	-106.83285	546.64801	-227.64845	49.36153	550.96460	-234.47984	-76.67709	563.76996	655.06177	71.48280	564.13892	651.22656	
1784	17.830	-245.42021	19.72851	-169.32300	177.27005	19.74391	-169.14618	-224.59064	21.72202	460.34247	189.30486	24.47691	422.51212	-72.79568	701.03186	-780.28552	-106.87778	546.69476	-227.60321	49.35000	550.99664	-234.42749	-76.75712	563.69824	655.03967	71.43438	564.10498	651.10590	
1785	17.840	-245.41946	19.69563	-169.29695	177.22211	19.81656	-169.08913	-224.62601	21.63507	460.38687	189.22594	24.38475	422.49377	-72.77292	700.93506	-780.40326	-106.82116	546.79474	-227.59167	49.36818	551.12769	-234.38751	-76.73779	563.63617	655.08337	71.36018	563.99994	651.20807	
1786	17.850	-245.42451	19.73104	-169.27457	177.14973	19.84226	-169.09482	-224.62543	21.52634	460.42178	189.07350	24.25083	422.50879	-73.10567	700.73193	-780.91815	-106.80210	547.00214	-227.51694	49.29987	551.30450	-234.35381	-76.82589	563.50189	655.15558	71.37576	563.78058	651.46552	
1787	17.860	-245.48117	19.83688	-169.27449	177.07274	19.91364	-169.02127	-224.64857	21.48622	460.42249	189.12277	24.23538	422.53366	-73.02419	700.57343	-781.49670	-106.78635	547.07312	-227.41788	49.28592	551.40546	-234.32677	-76.81627	563.41577	655.23059	71.32202	563.71930	651.50696	
1788	17.870	-245.56511	19.86038	-169.22325	177.01474	19.95795	-168.99248	-224.68018	21.51181	460.48209	189.00803	24.23272	422.52844	-72.86675	700.20398	-782.02679	-106.82543	546.99817	-227.37640	49.30645	551.32239	-234.20006	-76.89353	563.48004	655.33795	71.23351	563.82507	651.54395	
